# xmcd
#
# Track frame offsets:
# 150
# 13956
# 27775
# 39749
# 57605
# 74802
# 91942
# 107602
# 121263
# 136908
# 150852
# 168099
# 179380
# 192156
#
# Disc length: 2796 seconds
#
#
# Revision: 0
# Processed by: cddbd v1.5PL3 Copyright (c) Steve Scherf et al.
# Submitted via: FreeRIP 2.53 
#
DISCID=b80aea0e
DTITLE=George Hamilton V - Honky-Tonk Deluxe
DYEAR=2002
DGENRE=Country
TTITLE0=New shoes
TTITLE1=You and Yesterday
TTITLE2=Take my advice
TTITLE3=Mighta made her mine
TTITLE4=Roll with the punches
TTITLE5=Midnight at a redlight
TTITLE6=Can't tell ya why
TTITLE7=Edinburgh
TTITLE8=forget about me
TTITLE9=Pass me by
TTITLE10=The one and only mr. lonely
TTITLE11=Gone, gone, gone
TTITLE12=House of tears
TTITLE13=Black Coffee
EXTD=
EXTT0=
EXTT1=
EXTT2=
EXTT3=
EXTT4=
EXTT5=
EXTT6=
EXTT7=
EXTT8=
EXTT9=
EXTT10=
EXTT11=
EXTT12=
EXTT13=
PLAYORDER=
